<?xml version="1.0" encoding="UTF-8"?>
<svg version="1.1" xmlns="http://www.w3.org/2000/svg" width="596" height="421">
<path d="M0 0 C2.26065245 0.8931175 3.49728688 1.87365926 5.2277832 3.57177734 C5.81108398 4.1436377 6.39438477 4.71549805 6.99536133 5.3046875 C7.90511719 6.22967041 7.90511719 6.22967041 8.83325195 7.17333984 C9.4590918 7.80675293 10.08493164 8.44016602 10.72973633 9.09277344 C15.68691416 14.22699334 19.63314519 19.49922241 23.02075195 25.79833984 C23.53895508 26.70583984 24.0571582 27.61333984 24.59106445 28.54833984 C32.51768236 43.20660813 34.88230349 58.36730013 36.02075195 74.79833984 C36.78516602 74.22986328 37.54958008 73.66138672 38.3371582 73.07568359 C52.89509971 62.48327189 68.86805835 55.28019238 87.02075195 53.79833984 C87.959378 58.97766489 87.99924996 63.62532191 87.33325195 68.86083984 C87.19234131 69.97446899 87.19234131 69.97446899 87.04858398 71.1105957 C84.4290622 90.20531573 76.47618163 106.29652046 64.02075195 120.79833984 C63.35946289 121.57306641 62.69817383 122.34779297 62.0168457 123.14599609 C51.89501786 134.06013922 38.37387893 141.93882106 26.02075195 150.04833984 C13.84712073 157.94719393 13.84712073 157.94719393 4.0871582 168.54443359 C2.02075195 170.79833984 2.02075195 170.79833984 -0.46362305 171.40771484 C-3.98826472 170.55391965 -5.0019506 168.88453875 -7.22924805 166.04833984 C-14.95293239 156.83135942 -25.4204389 150.59740234 -35.54174805 144.29833984 C-60.12609406 128.88167233 -79.87796541 108.70485066 -86.85424805 79.79833984 C-87.25331547 77.80300273 -87.63165025 75.80328393 -87.97924805 73.79833984 C-88.10944336 73.08548828 -88.23963867 72.37263672 -88.3737793 71.63818359 C-89.28245577 65.73784439 -89.06851073 59.74918554 -88.97924805 53.79833984 C-69.3480149 55.82498487 -52.48589298 62.72024914 -36.97924805 74.79833984 C-36.94484619 74.24597656 -36.91044434 73.69361328 -36.875 73.12451172 C-35.33524055 50.07347717 -29.64030631 29.4170304 -13.97924805 11.79833984 C-13.44299805 11.14349609 -12.90674805 10.48865234 -12.35424805 9.81396484 C-3.96988267 -0.40448046 -3.96988267 -0.40448046 0 0 Z " fill="#53B034" transform="translate(96.979248046875,39.20166015625)"/>
<path d="M0 0 C14.55732663 12.29574196 23.56956577 31.53651173 25.20703125 50.3828125 C26.4013281 71.60717372 20.87474992 91.93919835 6.6875 108.125 C-7.28172827 123.02862481 -24.42996827 133.45417018 -45.34765625 134.3359375 C-67.50059926 134.68830504 -86.16562448 130.23110166 -103 115 C-103.75796875 114.33484375 -104.5159375 113.6696875 -105.296875 112.984375 C-119.16145816 100.07596999 -127.46771778 81.93381682 -128.3359375 62.9921875 C-128.72793424 40.9615444 -123.09557614 21.54648018 -108 5 C-107.48308594 4.3915625 -106.96617188 3.783125 -106.43359375 3.15625 C-78.30139432 -27.86672681 -30.45435014 -24.27802147 0 0 Z M-53 9 C-53.96486328 10.28777344 -53.96486328 10.28777344 -54.94921875 11.6015625 C-58.33243735 15.65952079 -62.48460744 18.4047121 -66.8125 21.375 C-80.64205286 31.14679642 -88.93151047 39.86366615 -92 57 C-93.10413324 66.93719919 -89.48086084 77.08097038 -83.62109375 85.07421875 C-76.53327711 93.49420334 -66.12468325 99.28826899 -55.1015625 100.25390625 C-42.08942303 100.73297552 -31.62272666 96.81956994 -22 88 C-13.62657759 78.35602173 -10.28718505 68.19635299 -11.1796875 55.4296875 C-13.14733575 42.94114451 -19.93453192 32.91939324 -30.00390625 25.52929688 C-32.99835168 23.3983291 -36.00403151 21.29032571 -39.05981445 19.24804688 C-43.11180505 16.50955545 -46.04962272 13.9692126 -49 10 C-51.12946603 9.13034494 -51.12946603 9.13034494 -53 9 Z " fill="#066FB7" transform="translate(148,248)"/>
<path d="M0 0 C6.6 0 13.2 0 20 0 C27.83255814 7.83255814 27.83255814 7.83255814 30.0390625 11.41015625 C32.4717104 15.21914946 35.07152195 18.82209894 37.8203125 22.40820312 C39.28400552 24.31872705 40.71980745 26.24677959 42.1484375 28.18359375 C45.37369542 32.50013757 48.69184327 36.74665564 52 41 C52.33 27.47 52.66 13.94 53 0 C59.6 0 66.2 0 73 0 C73 24.09 73 48.18 73 73 C53 73 53 73 47.5 68 C46.36906397 66.30956921 45.24028589 64.61622528 44.18359375 62.87841797 C42.46350529 60.14855811 40.49969652 57.62686382 38.53710938 55.06835938 C37.08702621 53.17606534 35.66532043 51.26602428 34.25 49.34765625 C29.89342846 43.51969456 25.43645145 37.76738689 21 32 C20.67 45.53 20.34 59.06 20 73 C13.4 73 6.8 73 0 73 C0 48.91 0 24.82 0 0 Z " fill="#8C8C8C" transform="translate(507,116)"/>
<path d="M0 0 C4.92509016 3.82510604 8.23542294 7.80854369 11.125 13.3125 C11.74375 14.4675 12.3625 15.6225 13 16.8125 C16.17127266 26.30732831 15.0302396 38.49162313 11.44921875 47.6640625 C6.26981393 58.02287214 -1.73134839 64.60563735 -12.49609375 68.56640625 C-23.42833257 71.99507228 -35.24482335 70.66076317 -45.65234375 66.09375 C-54.76103505 61.04116314 -61.33340555 53.65764804 -65.02734375 43.890625 C-67.87829439 31.8561974 -67.0283588 19.74388289 -60.5546875 9.15234375 C-54.79978179 0.74011819 -46.65742098 -4.10483817 -37.109375 -7.2734375 C-23.85978699 -9.72878073 -11.16812675 -7.52047245 0 0 Z M-40.7421875 17.25390625 C-44.39080959 21.99362346 -46.30236132 25.82821788 -46.22265625 31.98828125 C-45.36332853 37.73322501 -42.42368691 42.80158594 -38.3125 46.8125 C-32.13870878 50.61175614 -27.13812523 51.34227811 -19.875 50.3125 C-14.51750766 48.08878457 -10.04502371 44.59673621 -7.53515625 39.28515625 C-5.45891846 33.08101373 -5.13835519 28.07103145 -7.8125 22 C-11.10365766 16.13676114 -15.61978086 13.39757305 -21.875 11.3125 C-29.10084448 10.68958237 -35.52894673 11.83344461 -40.7421875 17.25390625 Z " fill="#8C8C8B" transform="translate(487.875,121.6875)"/>
<path d="M0 0 C19 0 19 0 23.42578125 3.3046875 C24.9387207 5.48852539 24.9387207 5.48852539 26.3125 7.875 C27.41475895 9.51820838 28.51898981 11.16009541 29.625 12.80078125 C30.16898437 13.65365723 30.71296875 14.5065332 31.2734375 15.38525391 C34.19499417 19.80972675 37.51818624 23.91273346 40.8125 28.0625 C41.98690012 29.57326881 43.16018474 31.08490584 44.33203125 32.59765625 C46.07544582 34.87910983 46.07544582 34.87910983 48 37 C48.33 24.79 48.66 12.58 49 0 C54.94 0 60.88 0 67 0 C67 22.11 67 44.22 67 67 C49 67 49 67 45 63.8125 C43.96551765 62.23035052 42.96894822 60.62311123 42 59 C40.47544551 57.00762192 38.93193657 55.029677 37.375 53.0625 C36.52856841 51.95777863 35.68492929 50.85091341 34.84375 49.7421875 C32.17705773 46.23065953 29.49871077 42.72816067 26.81835938 39.22705078 C24.21060731 35.81928231 21.60558018 32.40942938 19 29 C18.67 41.54 18.34 54.08 18 67 C12.06 67 6.12 67 0 67 C0 44.89 0 22.78 0 0 Z " fill="#8D8D8C" transform="translate(341,282)"/>
<path d="M0 0 C7.26 0 14.52 0 22 0 C25.59750754 8.5270203 29.01072045 17.10403254 32.30078125 25.75390625 C32.78685834 27.02995127 33.27295803 28.30598768 33.75907898 29.58201599 C34.7663552 32.2277192 35.77196344 34.87404967 36.77661133 37.52075195 C38.06421035 40.91185739 39.35824344 44.30047026 40.65372944 47.68856907 C41.65476555 50.30978948 42.65134926 52.93268584 43.64668846 55.55607414 C44.35268619 57.413531 45.06330967 59.26922752 45.77400208 61.12489319 C46.19832016 62.24713791 46.62263824 63.36938263 47.05981445 64.52563477 C47.43556107 65.51314224 47.81130768 66.50064972 48.19844055 67.51808167 C49 70 49 70 49 73 C42.07 73 35.14 73 28 73 C24 63.25 24 63.25 24 61 C15.42 61 6.84 61 -2 61 C-2.33 62.65 -2.66 64.3 -3 66 C-3.99 68.31 -4.98 70.62 -6 73 C-12.93 73 -19.86 73 -27 73 C-23.6250725 61.75024168 -23.6250725 61.75024168 -21.77929688 56.94287109 C-21.36877075 55.86830658 -20.95824463 54.79374207 -20.53527832 53.68661499 C-20.10082397 52.56026642 -19.66636963 51.43391785 -19.21875 50.2734375 C-18.76399292 49.08577789 -18.30923584 47.89811829 -17.84069824 46.67446899 C-16.64105706 43.54323053 -15.43836768 40.41320027 -14.23406982 37.28375244 C-13.0142684 34.11198475 -11.79823221 30.93877464 -10.58203125 27.765625 C-9.21079857 24.18844894 -7.83910153 20.61146009 -6.46472168 17.03549194 C-6.05419556 15.96723175 -5.64366943 14.89897156 -5.22070312 13.79833984 C-4.86335083 12.86919769 -4.50599854 11.94005554 -4.13781738 10.98275757 C-2.74348329 7.32754837 -1.37363879 3.66303676 0 0 Z M11 25 C9.99422987 27.76886123 8.99519853 30.53984104 8 33.3125 C7.71382812 34.09818359 7.42765625 34.88386719 7.1328125 35.69335938 C6.86210937 36.45068359 6.59140625 37.20800781 6.3125 37.98828125 C6.06113281 38.68477783 5.80976563 39.38127441 5.55078125 40.09887695 C4.86086464 42.150368 4.86086464 42.150368 5 45 C9.29 45 13.58 45 18 45 C16.20532905 38.24861881 14.29690099 31.59748156 12 25 C11.67 25 11.34 25 11 25 Z " fill="#8D8D8C" transform="translate(236,116)"/>
<path d="M0 0 C5.29425674 3.93092882 9.98819518 8.05386445 13 14 C13 14.99 13 15.98 13 17 C10.75564555 18.03516348 8.50593133 19.05314977 6.25 20.0625 C5.61578125 20.35705078 4.9815625 20.65160156 4.328125 20.95507812 C1.66682115 22.13325952 -0.42465206 23.0408925 -3.36328125 22.83203125 C-5.84206785 21.57193209 -6.5971547 19.3567801 -8 17 C-11.69458042 13.84874023 -15.09024156 13.47282069 -19.7890625 13.65234375 C-24.76412966 14.4346423 -27.38338456 17.18340117 -30.3125 21.0625 C-33.65263187 26.87680363 -33.59904294 32.43548778 -33 39 C-31.39880875 44.40402048 -28.74213548 47.88017402 -24 51 C-20.54820431 52.72589785 -16.78133961 52.36043965 -13 52 C-8.30398873 50.06034317 -7.78914989 48.64858316 -5 44 C-9.29 43.67 -13.58 43.34 -18 43 C-18 38.05 -18 33.1 -18 28 C-6.45 28 5.1 28 17 28 C17 40.69447008 15.82495479 50.42543515 7 60 C-2.27604044 67.89938426 -12.25194251 68.82149805 -23.95410156 68.19970703 C-32.2284468 67.39202035 -40.3555332 63.41988527 -45.65234375 56.99609375 C-52.81318535 46.92889591 -54.08786903 37.09806003 -53 25 C-50.76337479 15.41118629 -46.12959813 7.64776387 -38 2 C-26.84856541 -4.02521766 -11.59744396 -6.05496665 0 0 Z " fill="#8E8E8D" transform="translate(466,283)"/>
<path d="M0 0 C5.94 0 11.88 0 18 0 C24.403932 6.54314791 24.403932 6.54314791 26.26171875 9.69921875 C29.33362288 14.65296835 32.93717389 19.13139678 36.5625 23.6875 C37.7541457 25.21001821 38.94314054 26.73461663 40.12890625 28.26171875 C40.63494385 28.91100342 41.14098145 29.56028809 41.66235352 30.22924805 C42.83218339 31.77784744 43.92344395 33.38516592 45 35 C45.33 23.45 45.66 11.9 46 0 C51.61 0 57.22 0 63 0 C63 20.79 63 41.58 63 63 C46 63 46 63 40.6875 58 C39.36523438 56.27490234 39.36523438 56.27490234 38.40625 54.7109375 C36.1927285 51.24996533 33.77636246 47.99300318 31.28637695 44.7265625 C29.33249587 42.15838288 27.41994634 39.56079324 25.51049805 36.95947266 C23.41782168 34.24477725 21.19433562 31.63320275 19 29 C18.67 40.22 18.34 51.44 18 63 C12.06 63 6.12 63 0 63 C0 42.21 0 21.42 0 0 Z " fill="#8D8D8C" transform="translate(422,204)"/>
<path d="M0 0 C5.94 0 11.88 0 18 0 C18 8.58 18 17.16 18 26 C25.92 26 33.84 26 42 26 C42 17.42 42 8.84 42 0 C47.94 0 53.88 0 60 0 C60 22.11 60 44.22 60 67 C54.06 67 48.12 67 42 67 C42 58.09 42 49.18 42 40 C34.08 40 26.16 40 18 40 C18 48.91 18 57.82 18 67 C12.06 67 6.12 67 0 67 C0 44.89 0 22.78 0 0 Z " fill="#8B8B8A" transform="translate(211,282)"/>
<path d="M0 0 C35.5 0 35.5 0 43.375 5.25 C48.12147685 10.22249955 49.17571428 14.2324076 49.4375 20.9375 C49.28633973 26.42736622 48.31331911 30.57511577 45 35 C42.45583933 37.35800258 39.88377115 39.0774859 37 41 C37.33209473 41.44279297 37.66418945 41.88558594 38.00634766 42.34179688 C45.7890625 52.71875 45.7890625 52.71875 47.37988281 54.84765625 C48.48912899 56.32130216 49.6088239 57.78712478 50.73730469 59.24609375 C51.28547852 59.95894531 51.83365234 60.67179687 52.3984375 61.40625 C52.89778809 62.04884766 53.39713867 62.69144531 53.91162109 63.35351562 C55 65 55 65 55 67 C35.45045805 68.62558555 35.45045805 68.62558555 30.2265625 65.16015625 C28.44996334 62.52028004 27.23821845 59.92916052 26 57 C24.71756619 54.93931503 23.4052075 52.89692868 22.0625 50.875 C21.051875 49.26625 20.04125 47.6575 19 46 C18.67 52.93 18.34 59.86 18 67 C12.06 67 6.12 67 0 67 C0 44.89 0 22.78 0 0 Z M18 14 C18 19.28 18 24.56 18 30 C23.59740187 29.70122689 23.59740187 29.70122689 28.5 27.3125 C30.48223162 24.25655959 30.5964601 22.5787606 30 19 C28.29781752 16.37580202 27.02875145 15.23362867 23.953125 14.53515625 C21.9772303 14.27941101 19.98796405 14.13253094 18 14 Z " fill="#8C8C8B" transform="translate(532,282)"/>
<path d="M0 0 C3.6005867 3.00924947 6.70697729 6.00085516 8.640625 10.3515625 C8.640625 11.3415625 8.640625 12.3315625 8.640625 13.3515625 C6.37455448 14.38431591 4.10380561 15.40289801 1.828125 16.4140625 C1.18552734 16.70861328 0.54292969 17.00316406 -0.11914062 17.30664062 C-5.01953125 19.46484375 -5.01953125 19.46484375 -8.359375 18.3515625 C-9.2875 16.8975 -9.2875 16.8975 -10.234375 15.4140625 C-12.5853165 12.02594093 -13.37385107 11.14866729 -17.359375 10.3515625 C-21.82962194 10.29456482 -25.31532923 10.76144967 -29.234375 12.9765625 C-34.30562402 18.64442905 -34.90983162 23.99671085 -34.71484375 31.40625 C-34.07512432 36.70678244 -32.18012158 40.64116419 -28.296875 44.2890625 C-23.28459853 47.03773024 -18.5465497 46.76423697 -13.046875 45.7265625 C-10.05543788 44.55291601 -10.05543788 44.55291601 -8.984375 41.2265625 C-8.778125 40.2778125 -8.571875 39.3290625 -8.359375 38.3515625 C-12.319375 38.0215625 -16.279375 37.6915625 -20.359375 37.3515625 C-20.359375 33.0615625 -20.359375 28.7715625 -20.359375 24.3515625 C-9.469375 24.3515625 1.420625 24.3515625 12.640625 24.3515625 C11.48844451 39.32990893 10.62157512 46.4722611 -0.359375 56.3515625 C-8.86587726 62.02256401 -18.47106982 62.26291559 -28.359375 61.3515625 C-36.74867049 59.434948 -44.45151905 54.6232069 -49.234375 47.4140625 C-54.31344096 39.04958673 -54.43810976 28.82807049 -53.359375 19.3515625 C-51.19660764 10.63290659 -47.02129095 3.9556335 -39.4140625 -0.88671875 C-27.06618262 -7.54488928 -11.78475189 -8.23371738 0 0 Z " fill="#8D8D8C" transform="translate(324.359375,207.6484375)"/>
<path d="M0 0 C5.94 0 11.88 0 18 0 C18.01458252 1.26593994 18.02916504 2.53187988 18.04418945 3.83618164 C18.10236122 8.55342204 18.17959293 13.27019451 18.26245117 17.98706055 C18.29561184 20.02474345 18.32367112 22.06251624 18.34643555 24.1003418 C18.38014462 27.03733463 18.43246874 29.97351023 18.48828125 32.91015625 C18.49467117 33.81459976 18.5010611 34.71904327 18.50764465 35.65089417 C18.63441825 41.16117559 19.38291084 45.1189274 22 50 C24.83467711 52.15365612 27.08201751 52.24012676 30.5625 51.875 C33.64281629 51.45012879 34.68706774 51.29337399 37 49.125 C38.54178842 45.8486996 39.13351878 43.20027792 39.20532227 39.62036133 C39.22526749 38.73967484 39.24521271 37.85898834 39.26576233 36.95161438 C39.29083107 35.53117073 39.29083107 35.53117073 39.31640625 34.08203125 C39.33718735 33.10965012 39.35796844 32.13726898 39.37937927 31.13542175 C39.44478748 28.02785335 39.50371929 24.92020015 39.5625 21.8125 C39.60569351 19.70637142 39.64930807 17.60025144 39.69335938 15.49414062 C39.80045999 10.32951409 39.90175219 5.16480222 40 0 C45.94 0 51.88 0 58 0 C58.0743972 6.97426037 58.12871959 13.94828748 58.16479492 20.92285156 C58.17984099 23.29333523 58.20028273 25.66379125 58.22631836 28.03417969 C58.26288506 31.4499394 58.27976868 34.86532962 58.29296875 38.28125 C58.30845261 39.33364868 58.32393646 40.38604736 58.33988953 41.47033691 C58.3415911 48.98296976 57.66068466 54.92997924 52.5625 60.8125 C44.62280256 67.5902905 36.43142251 69.61565487 25.984375 69.27734375 C16.85819928 68.42923056 10.10326333 66.04799451 4 59 C0.98436234 54.03878966 -0.12834728 49.79874318 -0.11352539 44.04785156 C-0.11344986 43.06713684 -0.11337433 42.08642212 -0.11329651 41.07598877 C-0.10813522 40.02481873 -0.10297394 38.97364868 -0.09765625 37.890625 C-0.0962413 36.80867859 -0.09482635 35.72673218 -0.09336853 34.61199951 C-0.08777318 31.1579715 -0.0752215 27.70400841 -0.0625 24.25 C-0.0574844 21.90755302 -0.0529216 19.56510502 -0.04882812 17.22265625 C-0.03780527 11.48174583 -0.02054379 5.74088392 0 0 Z " fill="#8C8C8B" transform="translate(277,282)"/>
<path d="M0 0 C1 1 1 1 1.11352539 3.22485352 C1.10828857 4.18319092 1.10305176 5.14152832 1.09765625 6.12890625 C1.09443359 7.16337891 1.09121094 8.19785156 1.08789062 9.26367188 C1.07532227 10.8965918 1.07532227 10.8965918 1.0625 12.5625 C1.05798828 13.65498047 1.05347656 14.74746094 1.04882812 15.87304688 C1.03699826 18.58208495 1.02051543 21.29101599 1 24 C-1.15746798 22.96370068 -2.96095535 22.03231281 -4.8125 20.5 C-9.54710771 17.25341186 -14.46748661 16.52255586 -20.015625 17.46875 C-25.12609719 18.83690791 -28.16808034 20.90536886 -31.375 25.125 C-34.20331494 30.84284881 -34.86997663 37.21599636 -32.9375 43.3125 C-30.75719956 48.24057633 -27.30417154 50.72664204 -22.625 53.3125 C-15.12279679 55.27736274 -9.60138674 53.71017789 -3 50 C-1.68 49.01 -0.36 48.02 1 47 C1 54.92 1 62.84 1 71 C-11.76080894 74.82824268 -22.84348156 76.14484422 -35 70 C-45.19346837 64.39440012 -50.98939942 57.23250844 -54.5859375 46.203125 C-56.63647815 35.29270116 -55.41760361 24.29477483 -49.64453125 14.76171875 C-43.38080425 5.84472401 -34.83731169 -0.36854748 -24.1171875 -2.68359375 C-15.71010912 -3.94000214 -8.05949021 -2.56257267 0 0 Z " fill="#8D8D8C" transform="translate(335,117)"/>
<path d="M0 0 C0.79075928 0.00523682 1.58151855 0.01047363 2.39624023 0.01586914 C3.67724609 0.02070313 3.67724609 0.02070313 4.98413086 0.02563477 C5.88196289 0.03401367 6.77979492 0.04239258 7.70483398 0.05102539 C8.6065332 0.05553711 9.50823242 0.06004883 10.43725586 0.06469727 C12.67234712 0.07652315 14.90730835 0.09300319 17.14233398 0.11352539 C19.99605627 7.73613587 22.84744117 15.35961478 25.69585323 22.98421097 C27.0185824 26.52465355 28.34211209 30.06479252 29.66748047 33.60424805 C30.94670022 37.02055167 32.22380505 40.43763899 33.49945259 43.85527802 C33.98630224 45.15848626 34.47391094 46.4614112 34.96229362 47.76404572 C35.64663546 49.58974625 36.32802018 51.41655439 37.00927734 53.2434082 C37.39788437 54.28265442 37.78649139 55.32190063 38.18687439 56.39263916 C39.14233398 59.11352539 39.14233398 59.11352539 40.14233398 63.11352539 C33.87233398 63.11352539 27.60233398 63.11352539 21.14233398 63.11352539 C18.14233398 55.11352539 18.14233398 55.11352539 18.14233398 52.11352539 C10.88233398 52.11352539 3.62233398 52.11352539 -3.85766602 52.11352539 C-4.18766602 53.76352539 -4.51766602 55.41352539 -4.85766602 57.11352539 C-5.84766602 59.09352539 -6.83766602 61.07352539 -7.85766602 63.11352539 C-13.79766602 63.11352539 -19.73766602 63.11352539 -25.85766602 63.11352539 C-23.68202117 55.51017763 -21.07745807 48.17074287 -18.22485352 40.79711914 C-17.78754913 39.65944595 -17.35024475 38.52177277 -16.89968872 37.34962463 C-15.98202331 34.9648199 -15.06255274 32.58070906 -14.14135742 30.19726562 C-12.72552226 26.53253457 -11.31659401 22.86520097 -9.90844727 19.19750977 C-9.01432182 16.87638986 -8.11980472 14.55542078 -7.22485352 12.23461914 C-6.80195038 11.13371445 -6.37904724 10.03280975 -5.94332886 8.89854431 C-5.35734421 7.38545433 -5.35734421 7.38545433 -4.75952148 5.84179688 C-4.24347855 4.50470924 -4.24347855 4.50470924 -3.7170105 3.14060974 C-2.449056 0.14966632 -2.449056 0.14966632 0 0 Z M6.14233398 23.11352539 C4.49233398 28.39352539 2.84233398 33.67352539 1.14233398 39.11352539 C5.10233398 39.11352539 9.06233398 39.11352539 13.14233398 39.11352539 C11.49233398 33.83352539 9.84233398 28.55352539 8.14233398 23.11352539 C7.48233398 23.11352539 6.82233398 23.11352539 6.14233398 23.11352539 Z " fill="#8D8D8C" transform="translate(234.857666015625,203.886474609375)"/>
<path d="M0 0 C6.27 0 12.54 0 19 0 C22.28885742 7.80593534 25.44501892 15.63819934 28.42578125 23.56640625 C28.81823532 24.60772202 29.21068939 25.64903778 29.61503601 26.72190857 C30.43372151 28.89693492 31.25124236 31.07239999 32.06762695 33.24829102 C33.32185515 36.5874061 34.5836771 39.92359117 35.84570312 43.25976562 C36.64369371 45.38263794 37.44123624 47.50567874 38.23828125 49.62890625 C38.61632401 50.62571915 38.99436676 51.62253204 39.38386536 52.64955139 C39.72810043 53.57158859 40.07233551 54.49362579 40.42700195 55.44360352 C40.88403252 56.65839134 40.88403252 56.65839134 41.35029602 57.89772034 C42 60 42 60 42 63 C36.06 63 30.12 63 24 63 C22.68 59.7 21.36 56.4 20 53 C13.07 52.67 6.14 52.34 -1 52 C-1.99 54.97 -2.98 57.94 -4 61 C-4.33 61.66 -4.66 62.32 -5 63 C-10.94 63 -16.88 63 -23 63 C-22.24684801 58.48108807 -21.48354917 55.24341215 -19.86694336 51.08642578 C-19.42656235 49.94569611 -18.98618134 48.80496643 -18.53245544 47.62966919 C-18.05639359 46.41383148 -17.58033173 45.19799377 -17.08984375 43.9453125 C-16.59752627 42.67612817 -16.10571774 41.40674631 -15.61439514 40.13717651 C-14.32565379 36.81112384 -13.03005414 33.48778495 -11.73297119 30.16497803 C-10.40829469 26.76785821 -9.09017268 23.36819771 -7.77148438 19.96875 C-5.18737073 13.31000734 -2.59539466 6.65435535 0 0 Z M9 22 C8.16301614 24.45714547 7.33027576 26.91558857 6.5 29.375 C6.26152344 30.07367188 6.02304687 30.77234375 5.77734375 31.4921875 C4.46264088 35.16403079 4.46264088 35.16403079 4 39 C7.63 39 11.26 39 15 39 C13.7915371 33.05064416 12.25422333 27.63555833 10 22 C9.67 22 9.34 22 9 22 Z " fill="#8D8D8C" transform="translate(356,204)"/>
<path d="M0 0 C12.54 0 25.08 0 38 0 C38 5.28 38 10.56 38 16 C31.4 16 24.8 16 18 16 C18 19.3 18 22.6 18 26 C24.27 26 30.54 26 37 26 C37 30.95 37 35.9 37 41 C30.73 41 24.46 41 18 41 C18 44.63 18 48.26 18 52 C24.6 52 31.2 52 38 52 C38 56.95 38 61.9 38 67 C25.46 67 12.92 67 0 67 C0 44.89 0 22.78 0 0 Z " fill="#8A8A8A" transform="translate(488,282)"/>
<path d="M0 0 C0.7520874 -0.00128906 1.5041748 -0.00257813 2.27905273 -0.00390625 C8.7113859 0.11713413 14.12678749 1.56376976 19.9375 4.375 C18.44579734 9.3473422 16.33292583 13.79345739 13.9375 18.375 C8.1875 16.5 8.1875 16.5 5.9375 15.375 C1.88607881 15.11639865 0.39412331 15.07058446 -3.0625 17.375 C-3.02294102 19.29809422 -3.02294102 19.29809422 -2.0625 21.375 C0.70450905 23.12258466 3.51033421 24.23115208 6.60546875 25.2734375 C13.72216433 27.67448189 17.68685112 29.99902668 21.9375 36.375 C22.64915667 43.35089043 23.24608821 51.53218316 19.47265625 57.7265625 C14.39502181 63.17888244 7.98980898 65.83241048 0.71875 66.61328125 C-7.89779646 66.8936141 -17.33951225 65.04244619 -24.0625 59.375 C-23.48142368 55.6147015 -22.41050504 52.84464968 -20.5 49.5625 C-20.04496094 48.77230469 -19.58992188 47.98210937 -19.12109375 47.16796875 C-18.77175781 46.57628906 -18.42242187 45.98460937 -18.0625 45.375 C-15.31003081 46.42741469 -12.80793671 47.52208101 -10.25 49 C-6.03177769 50.81962531 -3.62996213 50.97401143 0.9375 50.375 C3.01966876 48.0200037 3.01966876 48.0200037 3.9375 45.375 C0.07015508 40.69400589 -4.53819479 39.57249327 -10.13085938 37.83984375 C-15.41913547 36.04569572 -17.88341101 33.99583902 -21.0625 29.375 C-23.14039983 23.14130051 -22.75042656 16.24267009 -20.1796875 10.1953125 C-15.50678809 2.58142744 -8.54278723 -0.01501534 0 0 Z " fill="#8E8E8D" transform="translate(513.0625,202.625)"/>
<path d="M0 0 C16.83 0 33.66 0 51 0 C51 5.61 51 11.22 51 17 C46.05 17 41.1 17 36 17 C36 35.48 36 53.96 36 73 C29.4 73 22.8 73 16 73 C16 54.52 16 36.04 16 17 C10.72 17 5.44 17 0 17 C0 11.39 0 5.78 0 0 Z " fill="#8D8D8C" transform="translate(341,116)"/>
<path d="M0 0 C14.52 0 29.04 0 44 0 C44 4.95 44 9.9 44 15 C39.38 15 34.76 15 30 15 C30 30.84 30 46.68 30 63 C24.39 63 18.78 63 13 63 C13 47.16 13 31.32 13 15 C8.71 15 4.42 15 0 15 C0 10.05 0 5.1 0 0 Z " fill="#8E8E8D" transform="translate(537,204)"/>
<path d="M0 0 C6.6 0 13.2 0 20 0 C20 24.09 20 48.18 20 73 C13.4 73 6.8 73 0 73 C0 48.91 0 24.82 0 0 Z " fill="#8E8E8D" transform="translate(397,116)"/>
<path d="M0 0 C5.61 0 11.22 0 17 0 C17 20.79 17 41.58 17 63 C11.39 63 5.78 63 0 63 C0 42.21 0 21.42 0 0 Z " fill="#8D8D8C" transform="translate(400,204)"/>
<path d="M0 0 C0.66 0.33 1.32 0.66 2 1 C-3.94 6.94 -9.88 12.88 -16 19 C-16 13.49581073 -10.69222469 9.76817235 -7 6 C-4.72454022 3.90179524 -2.40856363 1.94734932 0 0 Z " fill="#559DCE" transform="translate(51,243)"/>
<path d="M0 0 C0.99 0.33 1.98 0.66 3 1 C2.25556641 1.63615234 2.25556641 1.63615234 1.49609375 2.28515625 C-3.20321342 6.34243284 -7.67153988 10.54980194 -12 15 C-12.66 14.67 -13.32 14.34 -14 14 C-4.94252874 3.44827586 -4.94252874 3.44827586 0 0 Z " fill="#8FCC7B" transform="translate(95,39)"/>
<path d="M0 0 C0.66 0.33 1.32 0.66 2 1 C-1.96 4.96 -5.92 8.92 -10 13 C-10 8.41771462 -7.08388033 6.1816619 -4 3 C-1.625 1.0625 -1.625 1.0625 0 0 Z " fill="#B1B1B1" transform="translate(438,120)"/>
</svg>
